<svg xmlns="http://www.w3.org/2000/svg" viewBox="0 0 30.59 21"><defs><style>.cls-1{fill:#8395cb;}</style></defs><title>hair</title><g id="Man"><path class="cls-1" d="M22.74,14.69S9.38,19.56,6.63,21.6a6.66,6.66,0,0,0-2.48,2.92s-1.42-.62-1.33,1.42-1.59-3.19-2-4.87A11.14,11.14,0,0,1,4,11.24c3.63-3.45,7.61-6,11-5.84a12.65,12.65,0,0,1,8.76,3.72c2.65,2.57,3.27,2.39,3.81,2.65a10.84,10.84,0,0,1,3.63,6.37A31.57,31.57,0,0,1,30.53,26a1,1,0,0,0-1.33-.18c-.71.53-.88-3-3.19-7.35C24.33,15.31,22.74,14.69,22.74,14.69Z" transform="translate(-0.63 -5.39)"/></g></svg>