<svg xmlns="http://www.w3.org/2000/svg" xmlns:xlink="http://www.w3.org/1999/xlink" x="0px" y="0px" viewBox="0 0 48 48" width="48" height="48"><g class="nc-icon-wrapper" fill="#7f96df"><path data-color="color-2" fill="#7f96df" d="M47,28.5c0-3-2.5-5.5-5.5-5.5S36,25.5,36,28.5V32H12v-3.5c0-3-2.5-5.5-5.5-5.5S1,25.5,1,28.5 V42c0,0.6,0.4,1,1,1h5v3c0,0.6,0.4,1,1,1s1-0.4,1-1v-3h30v3c0,0.6,0.4,1,1,1s1-0.4,1-1v-3h5c0.6,0,1-0.4,1-1V28.5z"></path> <path fill="#7f96df" d="M14,28.5V30h20v-1.5c0-4,3.1-7.2,7-7.5V6c0-2.8-2.2-5-5-5H12C9.2,1,7,3.2,7,6v15C10.9,21.3,14,24.5,14,28.5z "></path></g></svg>